<svg width="170" height="179" viewBox="0 0 170 179" fill="none" xmlns="http://www.w3.org/2000/svg">
<path d="M170 56.4932H143.164V65.8882H170V56.4932Z" fill="#270B56"/>
<path d="M161.067 103.592H152.082V112.987H161.067V103.592Z" fill="#270B56"/>
<path d="M161.067 9.39258H152.082V18.7876H161.067V9.39258Z" fill="#270B56"/>
<path d="M152.09 94.1396H143.164V103.597H152.09V94.1396Z" fill="#270B56"/>
<path d="M152.09 18.79H143.164V28.2469H152.09V18.79Z" fill="#270B56"/>
<path d="M143.164 84.7412H134.238V94.1363H143.164V84.7412Z" fill="#270B56"/>
<path d="M143.164 28.248H134.238V37.6431H143.164V28.248Z" fill="#270B56"/>
<path d="M89.4962 84.7417H98.422V94.1367H107.406V84.7417H116.332V75.3466H125.258V56.4947H116.332V47.0996H98.422V56.4947H89.4962V65.8897H80.5117V75.3466H89.4962V84.7417Z" fill="#270B56"/>
<path d="M116.328 0H107.402V28.247H116.328V0Z" fill="#270B56"/>
<path d="M98.4062 94.1396H89.4805V103.597H98.4062V94.1396Z" fill="#270B56"/>
<path d="M89.4962 103.592H80.5117V112.987H89.4962V103.592Z" fill="#270B56"/>
<path d="M89.4962 28.248H80.5117V37.6431H89.4962V28.248Z" fill="#270B56"/>
<path d="M80.5195 112.99H71.5938V122.447H80.5195V112.99Z" fill="#270B56"/>
<path d="M80.5195 75.3477H71.5938V84.7427H80.5195V75.3477Z" fill="#270B56"/>
<path d="M80.5195 18.79H71.5938V28.2469H80.5195V18.79Z" fill="#270B56"/>
<path d="M71.5937 122.442H62.668V131.837H71.5937V122.442Z" fill="#270B56"/>
<path d="M71.5937 84.7412H62.668V94.1363H71.5937V84.7412Z" fill="#270B56"/>
<path d="M71.5937 9.39258H62.668V18.7876H71.5937V9.39258Z" fill="#270B56"/>
<path d="M62.6642 131.842H53.6797V141.237H62.6642V131.842Z" fill="#270B56"/>
<path d="M62.6642 94.1396H53.6797V103.597H62.6642V94.1396Z" fill="#270B56"/>
<path d="M53.6797 141.231H44.7539V150.688H53.6797V141.231Z" fill="#270B56"/>
<path d="M53.6797 103.592H44.7539V112.987H53.6797V103.592Z" fill="#270B56"/>
<path d="M44.75 150.691H35.8242V160.086H44.75V150.691Z" fill="#270B56"/>
<path d="M44.75 112.99H35.8242V122.447H44.75V112.99Z" fill="#270B56"/>
<path d="M35.8282 160.09H26.8438V169.485H35.8282V160.09Z" fill="#270B56"/>
<path d="M35.8282 122.442H26.8438V131.837H35.8282V122.442Z" fill="#270B56"/>
<path d="M26.8437 131.842H17.918V141.237H26.8437V131.842Z" fill="#270B56"/>
<path d="M26.836 169.482H8.92578V178.939H26.836V169.482Z" fill="#270B56"/>
<path d="M17.9103 141.231H8.92578V150.688H17.9103V141.231Z" fill="#270B56"/>
<path d="M8.92576 150.691H0V169.482H8.92576V150.691Z" fill="#270B56"/>
</svg>
