<svg width="292" height="96" viewBox="0 0 292 96" fill="none" xmlns="http://www.w3.org/2000/svg">
<path d="M0.91914 95.6084V13.2891H13.7861V0.714578H58.2356V13.2891H71.2488V58.031H58.2356V70.6055H19.4885V95.6084H0.91914ZM19.4885 50.574H52.5332V20.7461H19.4885V50.574ZM91.9439 95.6084V25.7174H110.513V95.6084H91.9439ZM91.9439 20.7461V0.714578H110.513V20.7461H91.9439Z" fill="#FF77FA"/>
<path d="M144.292 95.7546V82.7414H131.133V14.4588H144.292V1.44565H186.695V14.4588H200.001V43.7019H183.771V17.968H147.217V79.3785H183.771V53.2059H200.001V82.7414H186.695V95.7546H144.292ZM233.6 95.6084V83.1801H220.733V13.2891H233.6V0.714578H278.05V13.2891H291.063V83.1801H278.05V95.6084H233.6ZM239.303 75.7231H272.347V20.7461H239.303V75.7231Z" fill="#AEFF23"/>
</svg>
