<svg width="717" height="688" viewBox="0 0 717 688" fill="none" xmlns="http://www.w3.org/2000/svg">
<g filter="url(#filter0_dddddd_183_837)">
<rect x="64.9922" y="141.425" width="61.3593" height="61.3593" rx="10.8501" transform="rotate(15.9077 64.9922 141.425)" fill="#FF00F5"/>
</g>
<g style="mix-blend-mode:screen" filter="url(#filter1_f_183_837)">
<path d="M375.306 216.781C398.132 191.994 438.939 214.114 430.628 246.769C425.639 266.37 439.6 285.709 459.774 287.145C493.385 289.537 501.533 335.233 470.82 349.095C452.386 357.415 445.97 380.388 457.426 397.056C476.512 424.825 445.866 459.687 415.879 444.317C397.88 435.092 375.919 444.399 370.03 463.748C360.219 495.985 313.855 493.76 307.175 460.733C303.166 440.909 282.197 429.542 263.397 437.002C232.077 449.43 204.909 411.795 226.566 385.98C239.565 370.485 235.378 347.003 217.824 336.957C188.579 320.218 201.065 275.512 234.751 276.349C254.97 276.851 270.718 258.937 267.628 238.949C262.481 205.648 305.218 187.536 325.567 214.394C337.781 230.515 361.605 231.658 375.306 216.781Z" fill="url(#paint0_linear_183_837)"/>
</g>
<g style="mix-blend-mode:screen" filter="url(#filter2_f_183_837)">
<path d="M375.306 216.781C398.132 191.994 438.939 214.114 430.628 246.769C425.639 266.37 439.6 285.709 459.774 287.145C493.385 289.537 501.533 335.233 470.82 349.095C452.386 357.415 445.97 380.388 457.426 397.056C476.512 424.825 445.866 459.687 415.879 444.317C397.88 435.092 375.919 444.399 370.03 463.748C360.219 495.985 313.855 493.76 307.175 460.733C303.166 440.909 282.197 429.542 263.397 437.002C232.077 449.43 204.909 411.795 226.566 385.98C239.565 370.485 235.378 347.003 217.824 336.957C188.579 320.218 201.065 275.512 234.751 276.349C254.97 276.851 270.718 258.937 267.628 238.949C262.481 205.648 305.218 187.536 325.567 214.394C337.781 230.515 361.605 231.658 375.306 216.781Z" fill="url(#paint1_linear_183_837)"/>
</g>
<g style="mix-blend-mode:screen" filter="url(#filter3_f_183_837)">
<path d="M375.306 216.781C398.132 191.994 438.939 214.114 430.628 246.769C425.639 266.37 439.6 285.709 459.774 287.145C493.385 289.537 501.533 335.233 470.82 349.095C452.386 357.415 445.97 380.388 457.426 397.056C476.512 424.825 445.866 459.687 415.879 444.317C397.88 435.092 375.919 444.399 370.03 463.748C360.219 495.985 313.855 493.76 307.175 460.733C303.166 440.909 282.197 429.542 263.397 437.002C232.077 449.43 204.909 411.795 226.566 385.98C239.565 370.485 235.378 347.003 217.824 336.957C188.579 320.218 201.065 275.512 234.751 276.349C254.97 276.851 270.718 258.937 267.628 238.949C262.481 205.648 305.218 187.536 325.567 214.394C337.781 230.515 361.605 231.658 375.306 216.781Z" fill="url(#paint2_linear_183_837)"/>
</g>
<g style="mix-blend-mode:screen" filter="url(#filter4_f_183_837)">
<path d="M375.306 216.781C398.132 191.994 438.939 214.114 430.628 246.769C425.639 266.37 439.6 285.709 459.774 287.145C493.385 289.537 501.533 335.233 470.82 349.095C452.386 357.415 445.97 380.388 457.426 397.056C476.512 424.825 445.866 459.687 415.879 444.317C397.88 435.092 375.919 444.399 370.03 463.748C360.219 495.985 313.855 493.76 307.175 460.733C303.166 440.909 282.197 429.542 263.397 437.002C232.077 449.43 204.909 411.795 226.566 385.98C239.565 370.485 235.378 347.003 217.824 336.957C188.579 320.218 201.065 275.512 234.751 276.349C254.97 276.851 270.718 258.937 267.628 238.949C262.481 205.648 305.218 187.536 325.567 214.394C337.781 230.515 361.605 231.658 375.306 216.781Z" fill="url(#paint3_linear_183_837)"/>
</g>
<g filter="url(#filter5_i_183_837)">
<path d="M375.306 216.781C398.132 191.994 438.939 214.114 430.628 246.769C425.639 266.37 439.6 285.709 459.774 287.145C493.385 289.537 501.533 335.233 470.82 349.095C452.386 357.415 445.97 380.388 457.426 397.056C476.512 424.825 445.866 459.687 415.879 444.317C397.88 435.092 375.919 444.399 370.03 463.748C360.219 495.985 313.855 493.76 307.175 460.733C303.166 440.909 282.197 429.542 263.397 437.002C232.077 449.43 204.909 411.795 226.566 385.98C239.565 370.485 235.378 347.003 217.824 336.957C188.579 320.218 201.065 275.512 234.751 276.349C254.97 276.851 270.718 258.937 267.628 238.949C262.481 205.648 305.218 187.536 325.567 214.394C337.781 230.515 361.605 231.658 375.306 216.781Z" fill="url(#paint4_linear_183_837)"/>
</g>
<g filter="url(#filter6_dddddd_183_837)">
<rect x="581.367" y="443.749" width="84.6336" height="84.6336" rx="14.9657" transform="rotate(-5.23777 581.367 443.749)" fill="#B1F242"/>
</g>
<defs>
<filter id="filter0_dddddd_183_837" x="30.8828" y="124.133" width="110.41" height="110.411" filterUnits="userSpaceOnUse" color-interpolation-filters="sRGB">
<feFlood flood-opacity="0" result="BackgroundImageFix"/>
<feColorMatrix in="SourceAlpha" type="matrix" values="0 0 0 0 0 0 0 0 0 0 0 0 0 0 0 0 0 0 127 0" result="hardAlpha"/>
<feOffset/>
<feGaussianBlur stdDeviation="0.236281"/>
<feColorMatrix type="matrix" values="0 0 0 0 1 0 0 0 0 0 0 0 0 0 0.960784 0 0 0 1 0"/>
<feBlend mode="normal" in2="BackgroundImageFix" result="effect1_dropShadow_183_837"/>
<feColorMatrix in="SourceAlpha" type="matrix" values="0 0 0 0 0 0 0 0 0 0 0 0 0 0 0 0 0 0 127 0" result="hardAlpha"/>
<feOffset/>
<feGaussianBlur stdDeviation="0.472563"/>
<feColorMatrix type="matrix" values="0 0 0 0 1 0 0 0 0 0 0 0 0 0 0.960784 0 0 0 1 0"/>
<feBlend mode="normal" in2="effect1_dropShadow_183_837" result="effect2_dropShadow_183_837"/>
<feColorMatrix in="SourceAlpha" type="matrix" values="0 0 0 0 0 0 0 0 0 0 0 0 0 0 0 0 0 0 127 0" result="hardAlpha"/>
<feOffset/>
<feGaussianBlur stdDeviation="1.65397"/>
<feColorMatrix type="matrix" values="0 0 0 0 1 0 0 0 0 0 0 0 0 0 0.960784 0 0 0 1 0"/>
<feBlend mode="normal" in2="effect2_dropShadow_183_837" result="effect3_dropShadow_183_837"/>
<feColorMatrix in="SourceAlpha" type="matrix" values="0 0 0 0 0 0 0 0 0 0 0 0 0 0 0 0 0 0 127 0" result="hardAlpha"/>
<feOffset/>
<feGaussianBlur stdDeviation="3.30794"/>
<feColorMatrix type="matrix" values="0 0 0 0 1 0 0 0 0 0 0 0 0 0 0.960784 0 0 0 1 0"/>
<feBlend mode="normal" in2="effect3_dropShadow_183_837" result="effect4_dropShadow_183_837"/>
<feColorMatrix in="SourceAlpha" type="matrix" values="0 0 0 0 0 0 0 0 0 0 0 0 0 0 0 0 0 0 127 0" result="hardAlpha"/>
<feOffset/>
<feGaussianBlur stdDeviation="5.67075"/>
<feColorMatrix type="matrix" values="0 0 0 0 1 0 0 0 0 0 0 0 0 0 0.960784 0 0 0 1 0"/>
<feBlend mode="normal" in2="effect4_dropShadow_183_837" result="effect5_dropShadow_183_837"/>
<feColorMatrix in="SourceAlpha" type="matrix" values="0 0 0 0 0 0 0 0 0 0 0 0 0 0 0 0 0 0 127 0" result="hardAlpha"/>
<feOffset/>
<feGaussianBlur stdDeviation="9.92382"/>
<feColorMatrix type="matrix" values="0 0 0 0 1 0 0 0 0 0 0 0 0 0 0.960784 0 0 0 1 0"/>
<feBlend mode="normal" in2="effect5_dropShadow_183_837" result="effect6_dropShadow_183_837"/>
<feBlend mode="normal" in="SourceGraphic" in2="effect6_dropShadow_183_837" result="shape"/>
</filter>
<filter id="filter1_f_183_837" x="0.870468" y="0.862656" width="689.638" height="686.45" filterUnits="userSpaceOnUse" color-interpolation-filters="sRGB">
<feFlood flood-opacity="0" result="BackgroundImageFix"/>
<feBlend mode="normal" in="SourceGraphic" in2="BackgroundImageFix" result="shape"/>
<feGaussianBlur stdDeviation="100.28" result="effect1_foregroundBlur_183_837"/>
</filter>
<filter id="filter2_f_183_837" x="65.0494" y="65.0416" width="561.28" height="558.093" filterUnits="userSpaceOnUse" color-interpolation-filters="sRGB">
<feFlood flood-opacity="0" result="BackgroundImageFix"/>
<feBlend mode="normal" in="SourceGraphic" in2="BackgroundImageFix" result="shape"/>
<feGaussianBlur stdDeviation="68.1901" result="effect1_foregroundBlur_183_837"/>
</filter>
<filter id="filter3_f_183_837" x="121.206" y="121.198" width="448.967" height="445.779" filterUnits="userSpaceOnUse" color-interpolation-filters="sRGB">
<feFlood flood-opacity="0" result="BackgroundImageFix"/>
<feBlend mode="normal" in="SourceGraphic" in2="BackgroundImageFix" result="shape"/>
<feGaussianBlur stdDeviation="40.1118" result="effect1_foregroundBlur_183_837"/>
</filter>
<filter id="filter4_f_183_837" x="185.385" y="185.377" width="320.609" height="317.422" filterUnits="userSpaceOnUse" color-interpolation-filters="sRGB">
<feFlood flood-opacity="0" result="BackgroundImageFix"/>
<feBlend mode="normal" in="SourceGraphic" in2="BackgroundImageFix" result="shape"/>
<feGaussianBlur stdDeviation="8.02237" result="effect1_foregroundBlur_183_837"/>
</filter>
<filter id="filter5_i_183_837" x="201.43" y="201.422" width="288.52" height="286.937" filterUnits="userSpaceOnUse" color-interpolation-filters="sRGB">
<feFlood flood-opacity="0" result="BackgroundImageFix"/>
<feBlend mode="normal" in="SourceGraphic" in2="BackgroundImageFix" result="shape"/>
<feColorMatrix in="SourceAlpha" type="matrix" values="0 0 0 0 0 0 0 0 0 0 0 0 0 0 0 0 0 0 127 0" result="hardAlpha"/>
<feOffset dy="1.60447"/>
<feGaussianBlur stdDeviation="72.2013"/>
<feComposite in2="hardAlpha" operator="arithmetic" k2="-1" k3="1"/>
<feColorMatrix type="matrix" values="0 0 0 0 1 0 0 0 0 1 0 0 0 0 1 0 0 0 1 0"/>
<feBlend mode="normal" in2="shape" result="effect1_innerShadow_183_837"/>
</filter>
<filter id="filter6_dddddd_183_837" x="538.65" y="393.304" width="177.442" height="177.445" filterUnits="userSpaceOnUse" color-interpolation-filters="sRGB">
<feFlood flood-opacity="0" result="BackgroundImageFix"/>
<feColorMatrix in="SourceAlpha" type="matrix" values="0 0 0 0 0 0 0 0 0 0 0 0 0 0 0 0 0 0 127 0" result="hardAlpha"/>
<feOffset/>
<feGaussianBlur stdDeviation="0.524067"/>
<feColorMatrix type="matrix" values="0 0 0 0 0.34902 0 0 0 0 0.486275 0 0 0 0 0.113725 0 0 0 1 0"/>
<feBlend mode="normal" in2="BackgroundImageFix" result="effect1_dropShadow_183_837"/>
<feColorMatrix in="SourceAlpha" type="matrix" values="0 0 0 0 0 0 0 0 0 0 0 0 0 0 0 0 0 0 127 0" result="hardAlpha"/>
<feOffset/>
<feGaussianBlur stdDeviation="1.04813"/>
<feColorMatrix type="matrix" values="0 0 0 0 0.34902 0 0 0 0 0.486275 0 0 0 0 0.113725 0 0 0 1 0"/>
<feBlend mode="normal" in2="effect1_dropShadow_183_837" result="effect2_dropShadow_183_837"/>
<feColorMatrix in="SourceAlpha" type="matrix" values="0 0 0 0 0 0 0 0 0 0 0 0 0 0 0 0 0 0 127 0" result="hardAlpha"/>
<feOffset/>
<feGaussianBlur stdDeviation="3.66847"/>
<feColorMatrix type="matrix" values="0 0 0 0 0.34902 0 0 0 0 0.486275 0 0 0 0 0.113725 0 0 0 1 0"/>
<feBlend mode="normal" in2="effect2_dropShadow_183_837" result="effect3_dropShadow_183_837"/>
<feColorMatrix in="SourceAlpha" type="matrix" values="0 0 0 0 0 0 0 0 0 0 0 0 0 0 0 0 0 0 127 0" result="hardAlpha"/>
<feOffset/>
<feGaussianBlur stdDeviation="7.33694"/>
<feColorMatrix type="matrix" values="0 0 0 0 0.34902 0 0 0 0 0.486275 0 0 0 0 0.113725 0 0 0 1 0"/>
<feBlend mode="normal" in2="effect3_dropShadow_183_837" result="effect4_dropShadow_183_837"/>
<feColorMatrix in="SourceAlpha" type="matrix" values="0 0 0 0 0 0 0 0 0 0 0 0 0 0 0 0 0 0 127 0" result="hardAlpha"/>
<feOffset/>
<feGaussianBlur stdDeviation="12.5776"/>
<feColorMatrix type="matrix" values="0 0 0 0 0.34902 0 0 0 0 0.486275 0 0 0 0 0.113725 0 0 0 1 0"/>
<feBlend mode="normal" in2="effect4_dropShadow_183_837" result="effect5_dropShadow_183_837"/>
<feColorMatrix in="SourceAlpha" type="matrix" values="0 0 0 0 0 0 0 0 0 0 0 0 0 0 0 0 0 0 127 0" result="hardAlpha"/>
<feOffset/>
<feGaussianBlur stdDeviation="22.0108"/>
<feColorMatrix type="matrix" values="0 0 0 0 0.34902 0 0 0 0 0.486275 0 0 0 0 0.113725 0 0 0 1 0"/>
<feBlend mode="normal" in2="effect5_dropShadow_183_837" result="effect6_dropShadow_183_837"/>
<feBlend mode="normal" in="SourceGraphic" in2="effect6_dropShadow_183_837" result="shape"/>
</filter>
<linearGradient id="paint0_linear_183_837" x1="462.306" y1="122.309" x2="226.661" y2="557.016" gradientUnits="userSpaceOnUse">
<stop stop-color="#0029FF"/>
<stop offset="1" stop-color="#FF006B"/>
</linearGradient>
<linearGradient id="paint1_linear_183_837" x1="462.306" y1="122.309" x2="226.661" y2="557.016" gradientUnits="userSpaceOnUse">
<stop stop-color="#0029FF"/>
<stop offset="1" stop-color="#FF006B"/>
</linearGradient>
<linearGradient id="paint2_linear_183_837" x1="462.306" y1="122.309" x2="226.661" y2="557.016" gradientUnits="userSpaceOnUse">
<stop stop-color="#0029FF"/>
<stop offset="1" stop-color="#FF006B"/>
</linearGradient>
<linearGradient id="paint3_linear_183_837" x1="462.306" y1="122.309" x2="226.661" y2="557.016" gradientUnits="userSpaceOnUse">
<stop stop-color="#0029FF"/>
<stop offset="1" stop-color="#FF006B"/>
</linearGradient>
<linearGradient id="paint4_linear_183_837" x1="462.306" y1="122.309" x2="226.661" y2="557.016" gradientUnits="userSpaceOnUse">
<stop stop-color="#0029FF"/>
<stop offset="1" stop-color="#FF006B"/>
</linearGradient>
</defs>
</svg>
