<svg width="177" height="177" viewBox="0 0 177 177" fill="none" xmlns="http://www.w3.org/2000/svg">
<path d="M151.724 8.4043H143.316V168.534H151.724V8.4043Z" fill="#2A3910"/>
<path d="M143.312 168.535H126.441V176.998H143.312V168.535Z" fill="#2A3910"/>
<path d="M126.443 160.132H118.035V168.539H126.443V160.132Z" fill="#2A3910"/>
<path d="M126.435 42.1484H118.028V50.5559H109.565V58.9634H101.157V67.4262H92.6944V75.8338H84.2869V84.2412H75.8794V75.8338H67.4166V67.4262H59.0091V75.8338H50.6016V84.2412H59.0091V92.7041H67.4166V101.112H75.8794V109.574H84.2869V101.112H92.6944V92.7041H101.157V84.2412H109.565V75.8338H118.028V67.4262H126.435V58.9634H134.842V50.5559H126.435V42.1484Z" fill="#2A3910"/>
<path d="M118.029 151.721H109.566V160.128H118.029V151.721Z" fill="#2A3910"/>
<path d="M109.568 143.262H101.16V151.725H109.568V143.262Z" fill="#2A3910"/>
<path d="M101.174 134.852H92.7109V143.259H101.174V134.852Z" fill="#2A3910"/>
<path d="M92.7161 126.387H84.3086V134.85H92.7161V126.387Z" fill="#2A3910"/>
<path d="M84.2903 134.852H75.8828V143.259H84.2903V134.852Z" fill="#2A3910"/>
<path d="M75.8964 143.262H67.4336V151.725H75.8964V143.262Z" fill="#2A3910"/>
<path d="M67.4387 151.721H59.0312V160.128H67.4387V151.721Z" fill="#2A3910"/>
<path d="M59.0091 160.132H50.6016V168.539H59.0091V160.132Z" fill="#2A3910"/>
<path d="M143.324 0H33.75V8.4075H143.324V0Z" fill="#2A3910"/>
<path d="M50.6203 168.535H33.75V176.998H50.6203V168.535Z" fill="#2A3910"/>
<path d="M33.7402 8.4043H25.2773V168.534H33.7402V8.4043Z" fill="#2A3910"/>
</svg>
