<svg width="172" height="172" viewBox="0 0 172 172" fill="none" xmlns="http://www.w3.org/2000/svg">
<g clip-path="url(#clip0_195_1555)">
<path d="M171.993 65.5234H163.77V106.481H171.993V65.5234Z" fill="#3D0E3B"/>
<path d="M163.772 106.477H155.602V122.87H163.772V106.477Z" fill="#3D0E3B"/>
<path d="M163.772 106.477H155.602V122.87H163.772V106.477Z" fill="#3D0E3B"/>
<path d="M163.772 49.127H155.602V65.5207H163.772V49.127Z" fill="#3D0E3B"/>
<path d="M155.604 122.873H147.434V139.213H155.604V122.873Z" fill="#3D0E3B"/>
<path d="M155.604 122.873H147.434V139.213H155.604V122.873Z" fill="#3D0E3B"/>
<path d="M155.604 32.7334H147.434V49.1271H155.604V32.7334Z" fill="#3D0E3B"/>
<path d="M147.427 139.215H139.203V147.439H147.427V139.215Z" fill="#3D0E3B"/>
<path d="M147.427 139.215H139.203V147.439H147.427V139.215Z" fill="#3D0E3B"/>
<path d="M147.427 24.5654H139.203V32.7354H147.427V24.5654Z" fill="#3D0E3B"/>
<path d="M139.222 147.435H122.828V155.605H139.222V147.435Z" fill="#3D0E3B"/>
<path d="M139.222 147.435H122.828V155.605H139.222V147.435Z" fill="#3D0E3B"/>
<path d="M131.039 57.3507H122.815V49.127H98.2517V57.3507H90.0817V65.5207H81.858V57.3507H73.688V49.127H49.1242V57.3507H40.9542V65.5207H32.7305V90.0844H40.9542V98.3082H49.1242V106.478H57.2942V114.648H65.518V122.872H73.688V131.042H81.858V139.212H90.0817V131.042H98.2517V122.872H106.475V114.648H114.645V106.478H122.815V98.3082H131.039V90.0844H139.209V65.5207H131.039V57.3507ZM122.815 90.0844H114.645V73.6907H98.2517V65.5207H114.645V73.6907H122.815V90.0844Z" fill="#3D0E3B"/>
<path d="M131.039 57.3507H122.815V49.127H98.2517V57.3507H90.0817V65.5207H81.858V57.3507H73.688V49.127H49.1242V57.3507H40.9542V65.5207H32.7305V90.0844H40.9542V98.3082H49.1242V106.478H57.2942V114.648H65.518V122.872H73.688V131.042H81.858V139.212H90.0817V131.042H98.2517V122.872H106.475V114.648H114.645V106.478H122.815V98.3082H131.039V90.0844H139.209V65.5207H131.039V57.3507ZM122.815 90.0844H114.645V73.6907H98.2517V65.5207H114.645V73.6907H122.815V90.0844Z" fill="#3D0E3B"/>
<path d="M139.222 16.3926H122.828V24.5626H139.222V16.3926Z" fill="#3D0E3B"/>
<path d="M122.817 155.607H106.477V163.831H122.817V155.607Z" fill="#3D0E3B"/>
<path d="M122.817 155.607H106.477V163.831H122.817V155.607Z" fill="#3D0E3B"/>
<path d="M122.817 8.16699H106.477V16.3907H122.817V8.16699Z" fill="#3D0E3B"/>
<path d="M106.481 163.833H65.5234V172.003H106.481V163.833Z" fill="#3D0E3B"/>
<path d="M106.481 163.833H65.5234V172.003H106.481V163.833Z" fill="#3D0E3B"/>
<path d="M106.481 0H65.5234V8.17H106.481V0Z" fill="#3D0E3B"/>
<path d="M65.5226 155.607H49.1289V163.831H65.5226V155.607Z" fill="#3D0E3B"/>
<path d="M65.5226 155.607H49.1289V163.831H65.5226V155.607Z" fill="#3D0E3B"/>
<path d="M65.5226 8.16699H49.1289V16.3907H65.5226V8.16699Z" fill="#3D0E3B"/>
<path d="M49.1242 147.435H32.7305V155.605H49.1242V147.435Z" fill="#3D0E3B"/>
<path d="M49.1242 16.3926H32.7305V24.5626H49.1242V16.3926Z" fill="#3D0E3B"/>
<path d="M32.7364 139.215H24.5664V147.439H32.7364V139.215Z" fill="#3D0E3B"/>
<path d="M32.7364 24.5654H24.5664V32.7354H32.7364V24.5654Z" fill="#3D0E3B"/>
<path d="M24.5636 122.873H16.3398V139.213H24.5636V122.873Z" fill="#3D0E3B"/>
<path d="M24.5636 32.7334H16.3398V49.1271H24.5636V32.7334Z" fill="#3D0E3B"/>
<path d="M16.338 106.477H8.16797V122.87H16.338V106.477Z" fill="#3D0E3B"/>
<path d="M16.338 49.127H8.16797V65.5207H16.338V49.127Z" fill="#3D0E3B"/>
<path d="M8.17 65.5234H0V106.481H8.17V65.5234Z" fill="#3D0E3B"/>
</g>
<defs>
<clipPath id="clip0_195_1555">
<rect width="172" height="172" fill="white"/>
</clipPath>
</defs>
</svg>
