<svg width="215" height="81" viewBox="0 0 215 81" fill="none" xmlns="http://www.w3.org/2000/svg">
<path d="M32.1431 23.1919C35.4397 19.6122 41.333 22.8068 40.1326 27.5228C39.4122 30.3534 41.4283 33.1464 44.3419 33.3537C49.1959 33.6992 50.3727 40.2986 45.9372 42.3005C43.2749 43.5021 42.3483 46.8198 44.0028 49.2269C46.7591 53.2374 42.3333 58.2721 38.0026 56.0524C35.4032 54.7201 32.2317 56.0643 31.3812 58.8586C29.9642 63.5141 23.2685 63.1929 22.3038 58.4231C21.7247 55.5602 18.6964 53.9186 15.9814 54.9959C11.4581 56.7908 7.53456 51.3555 10.6622 47.6274C12.5395 45.3896 11.9348 41.9985 9.3998 40.5475C5.1763 38.1302 6.97944 31.6738 11.8443 31.7946C14.7643 31.8671 17.0386 29.28 16.5924 26.3934C15.8491 21.5841 22.0211 18.9684 24.9599 22.8472C26.7238 25.1754 30.1644 25.3405 32.1431 23.1919Z" fill="#CE0AFF"/>
<path d="M74.1183 60.7145V24.1467H79.834V18.5609H99.5793V24.1467H105.36V44.0219H99.5793V49.6077H82.3672V60.7145H74.1183ZM82.3672 40.7094H97.0462V27.4592H82.3672V40.7094ZM114.553 60.7145V29.6676H122.802V60.7145H114.553ZM114.553 27.4592V18.5609H122.802V27.4592H114.553Z" fill="#FF77FA"/>
<path d="M137.807 60.7794V54.9987H131.962V24.6663H137.807V18.8856H156.643V24.6663H162.554V37.6566H155.344V26.2252H139.106V53.5048H155.344V41.8785H162.554V54.9987H156.643V60.7794H137.807ZM177.48 60.7145V55.1936H171.764V24.1467H177.48V18.5609H197.225V24.1467H203.006V55.1936H197.225V60.7145H177.48ZM180.013 51.881H194.692V27.4592H180.013V51.881Z" fill="#AEFF23"/>
</svg>
