<svg width="303" height="122" viewBox="0 0 303 122" fill="none" xmlns="http://www.w3.org/2000/svg">
<path d="M48.4974 32.4195C53.4711 27.0186 62.3626 31.8385 60.5516 38.9538C59.4646 43.2246 62.5065 47.4385 66.9024 47.7514C74.226 48.2726 76.0015 58.2294 69.3093 61.2499C65.2926 63.0628 63.8946 68.0684 66.3908 71.7002C70.5495 77.7511 63.8719 85.3472 57.3379 81.9982C53.4161 79.9881 48.631 82.0161 47.3478 86.2321C45.21 93.2562 35.1077 92.7715 33.6521 85.575C32.7785 81.2555 28.2095 78.7788 24.1132 80.4042C17.2887 83.1122 11.369 74.9117 16.0879 69.2868C18.9202 65.9106 18.0079 60.7942 14.1832 58.605C7.81091 54.9578 10.5314 45.2167 17.8713 45.399C22.2769 45.5084 25.7083 41.6051 25.0351 37.2499C23.9136 29.9938 33.2257 26.0473 37.6596 31.8995C40.3209 35.4122 45.512 35.6612 48.4974 32.4195Z" fill="black"/>
<path d="M90.9778 91.078V35.9059H99.6015V27.4783H129.392V35.9059H138.114V65.8929H129.392V74.3206H103.423V91.078H90.9778ZM103.423 60.895H125.571V40.9038H103.423V60.895ZM151.984 91.078V44.2356H164.43V91.078H151.984ZM151.984 40.9038V27.4783H164.43V40.9038H151.984ZM187.069 91.176V82.4543H178.25V36.6899H187.069V27.9682H215.488V36.6899H224.406V56.2892H213.528V39.0418H189.029V80.2004H213.528V62.659H224.406V82.4543H215.488V91.176H187.069ZM246.925 91.078V82.7483H238.302V35.9059H246.925V27.4783H276.716V35.9059H285.438V82.7483H276.716V91.078H246.925ZM250.747 77.7504H272.894V40.9038H250.747V77.7504Z" fill="black"/>
</svg>
